<svg width="20" height="20" viewBox="0 0 20 20" fill="none" xmlns="http://www.w3.org/2000/svg">
<path d="M14.5417 18.9583C13.6 18.9583 12.6083 18.7333 11.5833 18.3C10.5833 17.875 9.57499 17.2916 8.59166 16.5833C7.61666 15.8666 6.67499 15.0666 5.78332 14.1916C4.89999 13.3 4.09999 12.3583 3.39166 11.3916C2.67499 10.3916 2.09999 9.39163 1.69166 8.42496C1.25832 7.39163 1.04166 6.39163 1.04166 5.44996C1.04166 4.79996 1.15832 4.18329 1.38332 3.60829C1.61666 3.01663 1.99166 2.46663 2.49999 1.99163C3.14166 1.35829 3.87499 1.04163 4.65832 1.04163C4.98332 1.04163 5.31666 1.11663 5.59999 1.24996C5.92499 1.39996 6.19999 1.62496 6.39999 1.92496L8.33332 4.64996C8.50832 4.89163 8.64166 5.12496 8.73332 5.35829C8.84166 5.60829 8.89999 5.85829 8.89999 6.09996C8.89999 6.41663 8.80832 6.72496 8.63332 7.01663C8.50832 7.24163 8.31666 7.48329 8.07499 7.72496L7.50832 8.31663C7.51666 8.34163 7.52499 8.35829 7.53332 8.37496C7.63332 8.54996 7.83332 8.84996 8.21666 9.29996C8.62499 9.76663 9.00832 10.1916 9.39166 10.5833C9.88332 11.0666 10.2917 11.45 10.675 11.7666C11.15 12.1666 11.4583 12.3666 11.6417 12.4583L11.625 12.5L12.2333 11.9C12.4917 11.6416 12.7417 11.45 12.9833 11.325C13.4417 11.0416 14.025 10.9916 14.6083 11.2333C14.825 11.325 15.0583 11.45 15.3083 11.625L18.075 13.5916C18.3833 13.8 18.6083 14.0666 18.7417 14.3833C18.8667 14.7 18.925 14.9916 18.925 15.2833C18.925 15.6833 18.8333 16.0833 18.6583 16.4583C18.4833 16.8333 18.2667 17.1583 17.9917 17.4583C17.5167 17.9833 17 18.3583 16.4 18.6C15.825 18.8333 15.2 18.9583 14.5417 18.9583ZM4.65832 2.29163C4.19999 2.29163 3.77499 2.49163 3.36666 2.89163C2.98332 3.24996 2.71666 3.64163 2.54999 4.06663C2.37499 4.49996 2.29166 4.95829 2.29166 5.44996C2.29166 6.22496 2.47499 7.06663 2.84166 7.93329C3.21666 8.81663 3.74166 9.73329 4.40832 10.65C5.07499 11.5666 5.83332 12.4583 6.66666 13.3C7.49999 14.125 8.39999 14.8916 9.32499 15.5666C10.225 16.225 11.15 16.7583 12.0667 17.1416C13.4917 17.75 14.825 17.8916 15.925 17.4333C16.35 17.2583 16.725 16.9916 17.0667 16.6083C17.2583 16.4 17.4083 16.175 17.5333 15.9083C17.6333 15.7 17.6833 15.4833 17.6833 15.2666C17.6833 15.1333 17.6583 15 17.5917 14.85C17.5667 14.8 17.5167 14.7083 17.3583 14.6L14.5917 12.6333C14.425 12.5166 14.275 12.4333 14.1333 12.375C13.95 12.3 13.875 12.225 13.5917 12.4C13.425 12.4833 13.275 12.6083 13.1083 12.775L12.475 13.4C12.15 13.7166 11.65 13.7916 11.2667 13.65L11.0417 13.55C10.7 13.3666 10.3 13.0833 9.85832 12.7083C9.45832 12.3666 9.02499 11.9666 8.49999 11.45C8.09166 11.0333 7.68332 10.5916 7.25832 10.1C6.86666 9.64163 6.58332 9.24996 6.40832 8.92496L6.30832 8.67496C6.25832 8.48329 6.24166 8.37496 6.24166 8.25829C6.24166 7.95829 6.34999 7.69163 6.55832 7.48329L7.18332 6.83329C7.34999 6.66663 7.47499 6.50829 7.55832 6.36663C7.62499 6.25829 7.64999 6.16663 7.64999 6.08329C7.64999 6.01663 7.62499 5.91663 7.58332 5.81663C7.52499 5.68329 7.43332 5.53329 7.31666 5.37496L5.38332 2.64163C5.29999 2.52496 5.19999 2.44163 5.07499 2.38329C4.94166 2.32496 4.79999 2.29163 4.65832 2.29163ZM11.625 12.5083L11.4917 13.075L11.7167 12.4916C11.675 12.4833 11.6417 12.4916 11.625 12.5083Z" fill="#4C4C4C"/>
</svg>
