<svg width="33" height="33" viewBox="0 0 33 33" fill="none" xmlns="http://www.w3.org/2000/svg">
<path d="M22.7868 24.0796L8.92058 10.2134C8.44682 9.73968 8.39691 9.00385 8.81048 8.59027C9.22405 8.1767 9.95989 8.22662 10.4337 8.70038L24.2998 22.5665C24.7736 23.0403 24.8235 23.7761 24.4099 24.1897C23.9964 24.6033 23.2605 24.5534 22.7868 24.0796Z" fill="#310A31"/>
<path d="M8.58138 24.1808C8.1727 23.7721 8.22666 23.0403 8.70042 22.5665L22.5666 8.70038C23.0404 8.22662 23.7721 8.17265 24.1808 8.58134C24.5895 8.99002 24.5355 9.72181 24.0618 10.1956L10.1956 24.0617C9.72185 24.5355 8.99007 24.5895 8.58138 24.1808Z" fill="#310A31"/>
</svg>
