<svg width="21" height="21" viewBox="0 0 21 21" fill="none" xmlns="http://www.w3.org/2000/svg">
<path d="M14 19.9062H7C3.80625 19.9062 1.96875 18.0687 1.96875 14.875V6.125C1.96875 2.93125 3.80625 1.09375 7 1.09375H14C17.1937 1.09375 19.0312 2.93125 19.0312 6.125V14.875C19.0312 18.0687 17.1937 19.9062 14 19.9062ZM7 2.40625C4.4975 2.40625 3.28125 3.6225 3.28125 6.125V14.875C3.28125 17.3775 4.4975 18.5937 7 18.5937H14C16.5025 18.5937 17.7187 17.3775 17.7187 14.875V6.125C17.7187 3.6225 16.5025 2.40625 14 2.40625H7Z" fill="#AE4E09"/>
<path d="M16.1875 8.09375H14.4375C13.1075 8.09375 12.0312 7.0175 12.0312 5.6875V3.9375C12.0312 3.57875 12.3287 3.28125 12.6875 3.28125C13.0462 3.28125 13.3437 3.57875 13.3437 3.9375V5.6875C13.3437 6.29125 13.8337 6.78125 14.4375 6.78125H16.1875C16.5462 6.78125 16.8437 7.07875 16.8437 7.4375C16.8437 7.79625 16.5462 8.09375 16.1875 8.09375Z" fill="#AE4E09"/>
<path d="M10.5 12.0312H7C6.64125 12.0312 6.34375 11.7337 6.34375 11.375C6.34375 11.0162 6.64125 10.7188 7 10.7188H10.5C10.8587 10.7188 11.1562 11.0162 11.1562 11.375C11.1562 11.7337 10.8587 12.0312 10.5 12.0312Z" fill="#AE4E09"/>
<path d="M14 15.5312H7C6.64125 15.5312 6.34375 15.2337 6.34375 14.875C6.34375 14.5162 6.64125 14.2188 7 14.2188H14C14.3587 14.2188 14.6562 14.5162 14.6562 14.875C14.6562 15.2337 14.3587 15.5312 14 15.5312Z" fill="#AE4E09"/>
</svg>
