<svg width="18" height="19" viewBox="0 0 18 19" fill="none" xmlns="http://www.w3.org/2000/svg">
<path d="M3.58951 11.4743C2.49827 11.4743 1.61523 10.5913 1.61523 9.50003C1.61523 8.40879 2.49827 7.52576 3.58951 7.52576C4.68074 7.52576 5.56378 8.40879 5.56378 9.50003C5.56378 10.5913 4.68074 11.4743 3.58951 11.4743ZM3.58951 8.60263C3.09414 8.60263 2.69211 9.00467 2.69211 9.50003C2.69211 9.99539 3.09414 10.3974 3.58951 10.3974C4.08487 10.3974 4.4869 9.99539 4.4869 9.50003C4.4869 9.00467 4.08487 8.60263 3.58951 8.60263Z" fill="#4C4C4C"/>
<path d="M13.6403 11.4743C12.5491 11.4743 11.666 10.5913 11.666 9.50003C11.666 8.40879 12.5491 7.52576 13.6403 7.52576C14.7315 7.52576 15.6146 8.40879 15.6146 9.50003C15.6146 10.5913 14.7315 11.4743 13.6403 11.4743ZM13.6403 8.60263C13.1449 8.60263 12.7429 9.00467 12.7429 9.50003C12.7429 9.99539 13.1449 10.3974 13.6403 10.3974C14.1356 10.3974 14.5377 9.99539 14.5377 9.50003C14.5377 9.00467 14.1356 8.60263 13.6403 8.60263Z" fill="#4C4C4C"/>
<path d="M8.6149 11.4743C7.52366 11.4743 6.64062 10.5913 6.64062 9.50003C6.64062 8.40879 7.52366 7.52576 8.6149 7.52576C9.70613 7.52576 10.5892 8.40879 10.5892 9.50003C10.5892 10.5913 9.70613 11.4743 8.6149 11.4743ZM8.6149 8.60263C8.11953 8.60263 7.7175 9.00467 7.7175 9.50003C7.7175 9.99539 8.11953 10.3974 8.6149 10.3974C9.11026 10.3974 9.51229 9.99539 9.51229 9.50003C9.51229 9.00467 9.11026 8.60263 8.6149 8.60263Z" fill="#4C4C4C"/>
</svg>
