<svg width="20" height="20" viewBox="0 0 20 20" fill="none" xmlns="http://www.w3.org/2000/svg">
<path d="M9.975 18.9583C5.04166 18.9583 1.01666 14.9416 1.01666 9.99996C1.01666 5.05829 5.04166 1.04163 9.975 1.04163C14.9083 1.04163 18.9333 5.05829 18.9333 9.99996C18.9333 14.9416 14.9167 18.9583 9.975 18.9583ZM9.975 2.29163C5.725 2.29163 2.26666 5.74996 2.26666 9.99996C2.26666 14.25 5.725 17.7083 9.975 17.7083C14.225 17.7083 17.6833 14.25 17.6833 9.99996C17.6833 5.74996 14.225 2.29163 9.975 2.29163Z" fill="#4C4C4C"/>
<path d="M10 16.0417C8.20834 16.0417 6.52501 15.1667 5.50001 13.6917C5.30001 13.4084 5.37501 13.0167 5.65834 12.8251C5.94168 12.6251 6.33334 12.7001 6.52501 12.9834C7.31668 14.1167 8.61668 14.8001 10 14.8001C11.3833 14.8001 12.6833 14.1251 13.475 12.9834C13.675 12.7001 14.0583 12.6334 14.3417 12.8251C14.625 13.0251 14.6917 13.4084 14.5 13.6917C13.475 15.1667 11.7917 16.0417 10 16.0417Z" fill="#4C4C4C"/>
</svg>
