<svg width="19" height="18" viewBox="0 0 19 18" fill="none" xmlns="http://www.w3.org/2000/svg">
<path d="M9.66675 9.5625C7.28925 9.5625 5.35425 7.6275 5.35425 5.25C5.35425 2.8725 7.28925 0.9375 9.66675 0.9375C12.0442 0.9375 13.9792 2.8725 13.9792 5.25C13.9792 7.6275 12.0442 9.5625 9.66675 9.5625ZM9.66675 2.0625C7.91175 2.0625 6.47925 3.495 6.47925 5.25C6.47925 7.005 7.91175 8.4375 9.66675 8.4375C11.4217 8.4375 12.8542 7.005 12.8542 5.25C12.8542 3.495 11.4217 2.0625 9.66675 2.0625Z" fill="#4C4C4C"/>
<path d="M3.22437 17.0625C2.91687 17.0625 2.66187 16.8075 2.66187 16.5C2.66187 13.2975 5.80436 10.6875 9.66686 10.6875C10.4244 10.6875 11.1669 10.785 11.8869 10.9875C12.1869 11.07 12.3594 11.3775 12.2769 11.6775C12.1944 11.9775 11.8869 12.15 11.5869 12.0675C10.9719 11.895 10.3269 11.8125 9.66686 11.8125C6.42686 11.8125 3.78687 13.9125 3.78687 16.5C3.78687 16.8075 3.53187 17.0625 3.22437 17.0625Z" fill="#4C4C4C"/>
<path d="M14.1667 17.0625C13.2817 17.0625 12.4417 16.7325 11.7892 16.14C11.5267 15.915 11.2942 15.6375 11.1142 15.33C10.7842 14.79 10.6042 14.1525 10.6042 13.5C10.6042 12.5625 10.9642 11.685 11.6092 11.0175C12.2842 10.32 13.1917 9.9375 14.1667 9.9375C15.1867 9.9375 16.1542 10.3725 16.8142 11.1225C17.3992 11.775 17.7292 12.615 17.7292 13.5C17.7292 13.785 17.6918 14.07 17.6168 14.34C17.5418 14.6775 17.3992 15.03 17.2042 15.3375C16.5817 16.4025 15.4117 17.0625 14.1667 17.0625ZM14.1667 11.0625C13.4992 11.0625 12.8843 11.325 12.4193 11.7975C11.9768 12.255 11.7292 12.855 11.7292 13.5C11.7292 13.9425 11.8492 14.3775 12.0817 14.7525C12.2017 14.9625 12.3592 15.15 12.5392 15.3075C12.9892 15.72 13.5667 15.945 14.1667 15.945C15.0142 15.945 15.8167 15.495 16.2517 14.7675C16.3792 14.5575 16.4767 14.3175 16.5292 14.085C16.5817 13.89 16.6042 13.7025 16.6042 13.5075C16.6042 12.9075 16.3793 12.33 15.9743 11.88C15.5243 11.355 14.8642 11.0625 14.1667 11.0625Z" fill="#4C4C4C"/>
<path d="M15.2916 14.0475H13.0491C12.7416 14.0475 12.4866 13.7925 12.4866 13.485C12.4866 13.1775 12.7416 12.9225 13.0491 12.9225H15.2916C15.5991 12.9225 15.8541 13.1775 15.8541 13.485C15.8541 13.7925 15.5991 14.0475 15.2916 14.0475Z" fill="#4C4C4C"/>
<path d="M14.1667 15.195C13.8592 15.195 13.6042 14.94 13.6042 14.6325V12.39C13.6042 12.0825 13.8592 11.8275 14.1667 11.8275C14.4742 11.8275 14.7292 12.0825 14.7292 12.39V14.6325C14.7292 14.9475 14.4742 15.195 14.1667 15.195Z" fill="#4C4C4C"/>
</svg>
