<svg width="20" height="20" viewBox="0 0 20 20" fill="none" xmlns="http://www.w3.org/2000/svg">
<path d="M17.4998 16.875H9.1665C8.82484 16.875 8.5415 16.5917 8.5415 16.25C8.5415 15.9083 8.82484 15.625 9.1665 15.625H17.4998C17.8415 15.625 18.1248 15.9083 18.1248 16.25C18.1248 16.5917 17.8415 16.875 17.4998 16.875Z" fill="#7D462A"/>
<path d="M17.4998 11.0416H9.1665C8.82484 11.0416 8.5415 10.7583 8.5415 10.4166C8.5415 10.075 8.82484 9.79163 9.1665 9.79163H17.4998C17.8415 9.79163 18.1248 10.075 18.1248 10.4166C18.1248 10.7583 17.8415 11.0416 17.4998 11.0416Z" fill="#7D462A"/>
<path d="M17.4998 5.20837H9.1665C8.82484 5.20837 8.5415 4.92504 8.5415 4.58337C8.5415 4.24171 8.82484 3.95837 9.1665 3.95837H17.4998C17.8415 3.95837 18.1248 4.24171 18.1248 4.58337C18.1248 4.92504 17.8415 5.20837 17.4998 5.20837Z" fill="#7D462A"/>
<path d="M3.3332 6.04162C3.17487 6.04162 3.01654 5.98328 2.89154 5.85828L2.0582 5.02495C1.81654 4.78328 1.81654 4.38328 2.0582 4.14162C2.29987 3.89995 2.69987 3.89995 2.94154 4.14162L3.3332 4.53328L5.39154 2.47495C5.6332 2.23328 6.0332 2.23328 6.27487 2.47495C6.51654 2.71662 6.51654 3.11662 6.27487 3.35828L3.77487 5.85828C3.64987 5.98328 3.49154 6.04162 3.3332 6.04162Z" fill="#7D462A"/>
<path d="M3.3332 11.875C3.17487 11.875 3.01654 11.8167 2.89154 11.6917L2.0582 10.8583C1.81654 10.6167 1.81654 10.2167 2.0582 9.97499C2.29987 9.73333 2.69987 9.73333 2.94154 9.97499L3.3332 10.3667L5.39154 8.30833C5.6332 8.06666 6.0332 8.06666 6.27487 8.30833C6.51654 8.54999 6.51654 8.94999 6.27487 9.19166L3.77487 11.6917C3.64987 11.8167 3.49154 11.875 3.3332 11.875Z" fill="#7D462A"/>
<path d="M3.3332 17.7084C3.17487 17.7084 3.01654 17.65 2.89154 17.525L2.0582 16.6917C1.81654 16.45 1.81654 16.05 2.0582 15.8084C2.29987 15.5667 2.69987 15.5667 2.94154 15.8084L3.3332 16.2L5.39154 14.1417C5.6332 13.9 6.0332 13.9 6.27487 14.1417C6.51654 14.3834 6.51654 14.7834 6.27487 15.025L3.77487 17.525C3.64987 17.65 3.49154 17.7084 3.3332 17.7084Z" fill="#7D462A"/>
</svg>
