<svg width="20" height="20" viewBox="0 0 20 20" fill="none" xmlns="http://www.w3.org/2000/svg">
<path d="M14.5333 12.8083C14.375 12.8083 14.2167 12.75 14.0917 12.625C13.85 12.3833 13.85 11.9833 14.0917 11.7416L15.7833 10.05L14.0917 8.35828C13.85 8.11662 13.85 7.71662 14.0917 7.47495C14.3333 7.23328 14.7333 7.23328 14.975 7.47495L17.1083 9.60828C17.35 9.84995 17.35 10.25 17.1083 10.4916L14.975 12.625C14.85 12.75 14.6917 12.8083 14.5333 12.8083Z" fill="#AE4E09"/>
<path d="M16.6083 10.675H8.13333C7.79166 10.675 7.50833 10.3917 7.50833 10.05C7.50833 9.70838 7.79166 9.42505 8.13333 9.42505H16.6083C16.95 9.42505 17.2333 9.70838 17.2333 10.05C17.2333 10.3917 16.95 10.675 16.6083 10.675Z" fill="#AE4E09"/>
<path d="M9.8 17.2917C5.50833 17.2917 2.50833 14.2917 2.50833 10C2.50833 5.70837 5.50833 2.70837 9.8 2.70837C10.1417 2.70837 10.425 2.99171 10.425 3.33337C10.425 3.67504 10.1417 3.95837 9.8 3.95837C6.24166 3.95837 3.75833 6.44171 3.75833 10C3.75833 13.5584 6.24166 16.0417 9.8 16.0417C10.1417 16.0417 10.425 16.325 10.425 16.6667C10.425 17.0084 10.1417 17.2917 9.8 17.2917Z" fill="#AE4E09"/>
</svg>
