<svg width="128" height="45" viewBox="0 0 128 45" fill="none" xmlns="http://www.w3.org/2000/svg">
<rect x="44.9814" y="44.5" width="44" height="44" rx="22" transform="rotate(180 44.9814 44.5)" fill="#310A31"/>
<path d="M29.5381 19.7233H23.4131C22.9348 19.7233 22.5381 19.3267 22.5381 18.8483C22.5381 18.37 22.9348 17.9733 23.4131 17.9733H29.5381C30.0164 17.9733 30.4131 18.37 30.4131 18.8483C30.4131 19.3267 30.0281 19.7233 29.5381 19.7233Z" fill="#FEF5EE"/>
<path d="M17.2881 20.61C17.0665 20.61 16.8448 20.5283 16.6698 20.3533L15.7948 19.4783C15.4565 19.14 15.4565 18.58 15.7948 18.2417C16.1331 17.9033 16.6931 17.9033 17.0315 18.2417L17.2881 18.4983L19.2948 16.4917C19.6331 16.1533 20.1931 16.1533 20.5315 16.4917C20.8698 16.83 20.8698 17.39 20.5315 17.7283L17.9065 20.3533C17.7431 20.5167 17.5215 20.61 17.2881 20.61Z" fill="#F3ECE6"/>
<path d="M29.5381 27.89H23.4131C22.9348 27.89 22.5381 27.4933 22.5381 27.015C22.5381 26.5367 22.9348 26.14 23.4131 26.14H29.5381C30.0164 26.14 30.4131 26.5367 30.4131 27.015C30.4131 27.4933 30.0281 27.89 29.5381 27.89Z" fill="#FEF5EE"/>
<path d="M17.2881 28.7767C17.0665 28.7767 16.8448 28.695 16.6698 28.52L15.7948 27.645C15.4565 27.3067 15.4565 26.7467 15.7948 26.4083C16.1331 26.07 16.6931 26.07 17.0315 26.4083L17.2881 26.665L19.2948 24.6583C19.6331 24.32 20.1931 24.32 20.5315 24.6583C20.8698 24.9967 20.8698 25.5567 20.5315 25.895L17.9065 28.52C17.7431 28.6833 17.5215 28.7767 17.2881 28.7767Z" fill="#FEF5EE"/>
<path d="M26.4815 35.0417H19.4815C13.1465 35.0417 10.4398 32.335 10.4398 26V19C10.4398 12.665 13.1465 9.95834 19.4815 9.95834H26.4815C32.8165 9.95834 35.5231 12.665 35.5231 19V26C35.5231 32.335 32.8165 35.0417 26.4815 35.0417ZM19.4815 11.7083C14.1031 11.7083 12.1898 13.6217 12.1898 19V26C12.1898 31.3783 14.1031 33.2917 19.4815 33.2917H26.4815C31.8598 33.2917 33.7731 31.3783 33.7731 26V19C33.7731 13.6217 31.8598 11.7083 26.4815 11.7083H19.4815Z" fill="#FEF5EE"/>
<path d="M62.7637 35.5718C63.8522 35.4604 64.3965 35.1698 64.3965 34.6997C64.3965 34.4276 64.2604 34.1245 63.9883 33.7905L58.9229 27.2964H58.0137C58.0137 30.2528 58.0508 32.4175 58.125 33.7905C58.125 34.1121 58.2054 34.3905 58.3662 34.6255C58.5394 34.8481 58.7868 35.0213 59.1084 35.145C59.4424 35.2687 59.7145 35.3615 59.9248 35.4233C60.1475 35.4728 60.4382 35.5223 60.7969 35.5718C60.8711 35.7202 60.9082 35.8748 60.9082 36.0356C60.9082 36.1965 60.8711 36.3325 60.7969 36.4438C59.1641 36.3696 57.6178 36.3325 56.1582 36.3325C54.6491 36.3325 53.0781 36.3696 51.4453 36.4438C51.3958 36.2459 51.3711 36.1099 51.3711 36.0356C51.3711 35.9738 51.3958 35.8192 51.4453 35.5718C51.8535 35.5223 52.1813 35.4728 52.4287 35.4233C52.6885 35.3615 53.0101 35.2687 53.3936 35.145C53.7894 35.0213 54.0863 34.8481 54.2842 34.6255C54.4821 34.3905 54.5872 34.1121 54.5996 33.7905C54.6491 32.5659 54.6676 28.7065 54.6553 22.2124C54.6429 15.7059 54.6367 12.063 54.6367 11.2837C53.9316 10.8755 52.7441 10.6219 51.0742 10.5229C51.0124 10.3621 50.9814 10.2137 50.9814 10.0776C50.9814 9.95394 51.0124 9.81169 51.0742 9.65088C53.4245 9.42822 55.5088 8.92106 57.3271 8.12939C57.6611 8.26546 57.8776 8.43245 57.9766 8.63037L58.0137 26.1089H58.9785L62.7266 22.5464C62.9616 22.2743 63.0791 21.9959 63.0791 21.7114C63.0791 21.1919 62.4915 20.8703 61.3164 20.7466C61.2669 20.5487 61.2422 20.4126 61.2422 20.3384C61.2422 20.2271 61.2669 20.0724 61.3164 19.8745C62.9245 19.9487 64.2048 19.9858 65.1572 19.9858C66.1963 19.9858 67.5137 19.9487 69.1094 19.8745C69.1589 20.0229 69.1836 20.1528 69.1836 20.2642C69.1836 20.3384 69.1589 20.4992 69.1094 20.7466C68.0085 20.8703 67.0993 21.0558 66.3818 21.3032C65.6644 21.5382 65.015 21.9526 64.4336 22.5464L61.4834 25.5337L68.0146 33.7905C68.7568 34.7554 69.8701 35.3491 71.3545 35.5718C71.404 35.8192 71.4287 35.9862 71.4287 36.0728C71.4287 36.1717 71.404 36.2954 71.3545 36.4438C69.7588 36.3696 68.3177 36.3325 67.0312 36.3325C65.7819 36.3325 64.3594 36.3696 62.7637 36.4438C62.7142 36.2459 62.6895 36.0975 62.6895 35.9985C62.6895 35.9119 62.7142 35.7697 62.7637 35.5718Z" fill="#310A31"/>
<path d="M69.9072 19.8745C71.4658 19.9487 73.012 19.9858 74.5459 19.9858C75.6592 19.9858 76.9766 19.9487 78.498 19.8745C78.5475 20.0724 78.5723 20.2271 78.5723 20.3384C78.5723 20.4126 78.5475 20.5487 78.498 20.7466C78.2012 20.7713 77.9538 20.8022 77.7559 20.8394C77.5579 20.8641 77.3353 20.9136 77.0879 20.9878C76.8405 21.062 76.6488 21.1733 76.5127 21.3218C76.389 21.4702 76.3271 21.6496 76.3271 21.8599C76.3271 21.9712 76.3766 22.2 76.4756 22.5464L80.2793 32.0093H80.3535L83.749 24.5503L82.9883 22.5464C82.8646 22.2248 82.7038 21.9526 82.5059 21.73C82.3079 21.495 82.0667 21.3156 81.7822 21.1919C81.4977 21.0682 81.2503 20.9754 81.04 20.9136C80.8421 20.8517 80.5885 20.7961 80.2793 20.7466C80.2298 20.6476 80.2051 20.5116 80.2051 20.3384C80.2051 20.1528 80.2298 19.9982 80.2793 19.8745C81.8379 19.9487 83.2728 19.9858 84.584 19.9858C85.8704 19.9858 87.2744 19.9487 88.7959 19.8745C88.8454 20.0724 88.8701 20.2271 88.8701 20.3384C88.8701 20.4126 88.8454 20.5487 88.7959 20.7466C88.4619 20.7713 88.196 20.8022 87.998 20.8394C87.8001 20.8641 87.5466 20.9136 87.2373 20.9878C86.9404 21.062 86.7116 21.1733 86.5508 21.3218C86.4023 21.4702 86.3281 21.6496 86.3281 21.8599C86.3281 21.9712 86.3776 22.2 86.4766 22.5464L89.8906 32.0093H89.9648L93.9727 22.5464C94.0964 22.2371 94.1582 21.9712 94.1582 21.7485C94.1582 21.1919 93.4841 20.8579 92.1357 20.7466C92.0863 20.5487 92.0615 20.4126 92.0615 20.3384C92.0615 20.2271 92.0863 20.0724 92.1357 19.8745C93.5088 19.9487 94.3561 19.9858 94.6777 19.9858C95.6673 19.9858 96.9229 19.9487 98.4443 19.8745C98.4938 20.0229 98.5186 20.1528 98.5186 20.2642C98.5186 20.3384 98.4938 20.4992 98.4443 20.7466C97.0094 20.8084 96.0632 21.4084 95.6055 22.5464L89.3711 36.8706H88.499L84.4727 26.4614L79.7598 36.8706H78.8691L72.9873 22.5464C72.8512 22.2371 72.6595 21.9712 72.4121 21.7485C72.1771 21.5135 71.8926 21.3341 71.5586 21.2104C71.2246 21.0744 70.9463 20.9816 70.7236 20.9321C70.5133 20.8703 70.2412 20.8084 69.9072 20.7466C69.8577 20.6476 69.833 20.5116 69.833 20.3384C69.833 20.1528 69.8577 19.9982 69.9072 19.8745Z" fill="#310A31"/>
<path d="M99.5762 21.062C101.976 20.8146 104.066 20.3075 105.848 19.5405C106.157 19.6642 106.373 19.825 106.497 20.0229C106.497 26.4429 106.547 31.0321 106.646 33.7905C106.658 34.1121 106.751 34.3905 106.924 34.6255C107.109 34.8481 107.369 35.0213 107.703 35.145C108.037 35.2687 108.315 35.3615 108.538 35.4233C108.761 35.4728 109.051 35.5223 109.41 35.5718C109.484 35.7202 109.521 35.8748 109.521 36.0356C109.521 36.1965 109.484 36.3325 109.41 36.4438C107.777 36.3696 106.194 36.3325 104.66 36.3325C103.151 36.3325 101.58 36.3696 99.9473 36.4438C99.8978 36.2459 99.873 36.1099 99.873 36.0356C99.873 35.9738 99.8978 35.8192 99.9473 35.5718C100.355 35.5223 100.689 35.4728 100.949 35.4233C101.209 35.3615 101.531 35.2687 101.914 35.145C102.298 35.0213 102.588 34.8481 102.786 34.6255C102.984 34.3905 103.089 34.1121 103.102 33.7905C103.151 32.5659 103.176 31.0815 103.176 29.3374C103.176 28.756 103.17 27.7664 103.157 26.3687C103.145 24.9709 103.139 23.7463 103.139 22.6948C102.434 22.2619 101.246 22.0083 99.5762 21.9341C99.5267 21.7362 99.502 21.5815 99.502 21.4702C99.502 21.396 99.5267 21.2599 99.5762 21.062ZM102.489 13.3062C102.489 12.6753 102.712 12.1372 103.157 11.6919C103.615 11.2466 104.153 11.0239 104.771 11.0239C105.402 11.0239 105.94 11.2466 106.386 11.6919C106.831 12.1372 107.054 12.6753 107.054 13.3062C107.054 13.9246 106.831 14.4627 106.386 14.9204C105.94 15.3657 105.402 15.5884 104.771 15.5884C104.153 15.5884 103.615 15.3657 103.157 14.9204C102.712 14.4627 102.489 13.9246 102.489 13.3062Z" fill="#310A31"/>
<path d="M113.789 19.8745C115.57 19.9735 117.469 20.0229 119.485 20.0229C121.687 20.0229 123.703 19.9735 125.534 19.8745C125.757 20.1095 125.868 20.3384 125.868 20.561L116.294 34.9966H120.395C121.05 34.9966 121.638 34.9224 122.157 34.7739C122.689 34.6131 123.128 34.4276 123.475 34.2173C123.833 34.007 124.198 33.6792 124.569 33.2339C124.94 32.7762 125.231 32.3742 125.441 32.0278C125.664 31.6815 125.973 31.1681 126.369 30.4878C126.592 30.4878 126.808 30.5373 127.019 30.6362L125.831 36.4438C123.666 36.3696 121.502 36.3325 119.337 36.3325C117.061 36.3325 114.847 36.3696 112.694 36.4438C112.459 36.3078 112.292 36.0542 112.193 35.6831L121.916 21.0249H119.448C116.653 21.0249 114.624 22.3052 113.362 24.8657C113.276 24.8657 113.121 24.8224 112.898 24.7358C112.688 24.6493 112.552 24.575 112.49 24.5132L113.789 19.8745Z" fill="#310A31"/>
<circle cx="104.85" cy="13.3325" r="3" fill="#FEF5EE"/>
</svg>
