<svg width="20" height="20" viewBox="0 0 20 20" fill="none" xmlns="http://www.w3.org/2000/svg">
<path d="M14.0833 15.8417C13.825 15.8417 13.5667 15.7667 13.3417 15.6167L12.5417 15.0917C12.3167 14.9417 12.2083 14.6584 12.2833 14.4001C12.3417 14.2084 12.3667 13.9834 12.3667 13.7334V10.3417C12.3667 8.98335 11.5167 8.13338 10.1583 8.13338H4.49998C4.39998 8.13338 4.30832 8.14173 4.21665 8.15007C4.04165 8.1584 3.87499 8.10006 3.74166 7.98339C3.60833 7.86672 3.54166 7.70007 3.54166 7.52507V5.21672C3.54166 2.76672 5.25832 1.05005 7.70832 1.05005H14.7917C17.2417 1.05005 18.9583 2.76672 18.9583 5.21672V9.4667C18.9583 10.675 18.55 11.7417 17.8 12.475C17.2 13.0834 16.3667 13.475 15.4167 13.5917V14.5167C15.4167 15.0167 15.1417 15.4667 14.7083 15.7001C14.5083 15.7917 14.2917 15.8417 14.0833 15.8417ZM13.5833 14.275L14.125 14.5834C14.175 14.5584 14.175 14.5167 14.175 14.5084V13C14.175 12.6584 14.4583 12.375 14.8 12.375C15.675 12.375 16.4167 12.1001 16.925 11.5834C17.45 11.0667 17.7167 10.3334 17.7167 9.45835V5.20837C17.7167 3.43337 16.575 2.29171 14.8 2.29171H7.71665C5.94165 2.29171 4.79999 3.43337 4.79999 5.20837V6.87504H10.1667C12.2 6.87504 13.625 8.30006 13.625 10.3334V13.725C13.6167 13.9167 13.6083 14.1 13.5833 14.275Z" fill="#4C4C4C"/>
<path d="M5.05833 18.9583C4.875 18.9583 4.68333 18.9167 4.50833 18.825C4.11666 18.6167 3.87498 18.2167 3.87498 17.7667V17.1333C3.14165 17.0167 2.49166 16.7083 2.00833 16.225C1.37499 15.5916 1.04166 14.725 1.04166 13.725V10.3334C1.04166 8.45002 2.27498 7.06668 4.10832 6.89168C4.24165 6.88335 4.36665 6.875 4.49998 6.875H10.1583C12.1917 6.875 13.6167 8.30002 13.6167 10.3334V13.725C13.6167 14.0916 13.575 14.4333 13.4833 14.7417C13.1083 16.2417 11.8333 17.1833 10.1583 17.1833H8.08332L5.72499 18.75C5.52499 18.8917 5.29166 18.9583 5.05833 18.9583ZM4.49998 8.125C4.39998 8.125 4.30832 8.13335 4.21665 8.14168C3.01665 8.25002 2.29166 9.07502 2.29166 10.3334V13.725C2.29166 14.3916 2.49999 14.95 2.89166 15.3416C3.27499 15.725 3.83332 15.9333 4.49998 15.9333C4.84165 15.9333 5.12498 16.2167 5.12498 16.5583V17.65L7.54166 16.0417C7.64166 15.975 7.76666 15.9333 7.89166 15.9333H10.1583C11.2583 15.9333 12.0333 15.3833 12.275 14.4167C12.3333 14.2083 12.3667 13.975 12.3667 13.725V10.3334C12.3667 8.97502 11.5167 8.125 10.1583 8.125H4.49998Z" fill="#4C4C4C"/>
</svg>
