<svg width="24" height="25" viewBox="0 0 24 25" fill="none" xmlns="http://www.w3.org/2000/svg">
<path d="M15 23.25H9C4.59 23.25 3.25 21.91 3.25 17.5V7.5C3.25 3.09 4.59 1.75 9 1.75H15C19.41 1.75 20.75 3.09 20.75 7.5V17.5C20.75 21.91 19.41 23.25 15 23.25ZM9 3.25C5.42 3.25 4.75 3.93 4.75 7.5V17.5C4.75 21.07 5.42 21.75 9 21.75H15C18.58 21.75 19.25 21.07 19.25 17.5V7.5C19.25 3.93 18.58 3.25 15 3.25H9Z" fill="#310A31"/>
<path d="M14 6.75H10C9.59 6.75 9.25 6.41 9.25 6C9.25 5.59 9.59 5.25 10 5.25H14C14.41 5.25 14.75 5.59 14.75 6C14.75 6.41 14.41 6.75 14 6.75Z" fill="#310A31"/>
<path d="M12 20.36C10.73 20.36 9.70001 19.33 9.70001 18.06C9.70001 16.79 10.73 15.76 12 15.76C13.27 15.76 14.3 16.79 14.3 18.06C14.3 19.33 13.27 20.36 12 20.36ZM12 17.25C11.56 17.25 11.2 17.61 11.2 18.05C11.2 18.49 11.56 18.85 12 18.85C12.44 18.85 12.8 18.49 12.8 18.05C12.8 17.61 12.44 17.25 12 17.25Z" fill="#310A31"/>
</svg>
