<svg width="24" height="25" viewBox="0 0 24 25" fill="none" xmlns="http://www.w3.org/2000/svg">
<path d="M17.56 18.47H6.44C2.46 18.47 1.25 17.26 1.25 13.28V6.94C1.25 2.96 2.46 1.75 6.44 1.75H17.55C21.53 1.75 22.74 2.96 22.74 6.94V13.27C22.75 17.26 21.54 18.47 17.56 18.47ZM6.44 3.25C3.3 3.25 2.75 3.8 2.75 6.94V13.27C2.75 16.41 3.3 16.96 6.44 16.96H17.55C20.69 16.96 21.24 16.41 21.24 13.27V6.94C21.24 3.8 20.69 3.25 17.55 3.25H6.44V3.25Z" fill="#310A31"/>
<path d="M12 23.25C11.59 23.25 11.25 22.91 11.25 22.5V17.72C11.25 17.31 11.59 16.97 12 16.97C12.41 16.97 12.75 17.31 12.75 17.72V22.5C12.75 22.91 12.41 23.25 12 23.25Z" fill="#310A31"/>
<path d="M22 14.25H2C1.59 14.25 1.25 13.91 1.25 13.5C1.25 13.09 1.59 12.75 2 12.75H22C22.41 12.75 22.75 13.09 22.75 13.5C22.75 13.91 22.41 14.25 22 14.25Z" fill="#310A31"/>
<path d="M16.5 23.25H7.5C7.09 23.25 6.75 22.91 6.75 22.5C6.75 22.09 7.09 21.75 7.5 21.75H16.5C16.91 21.75 17.25 22.09 17.25 22.5C17.25 22.91 16.91 23.25 16.5 23.25Z" fill="#310A31"/>
</svg>
