<svg width="20" height="20" viewBox="0 0 20 20" fill="none" xmlns="http://www.w3.org/2000/svg">
<path d="M17.5 16.875H9.16669C8.82502 16.875 8.54169 16.5917 8.54169 16.25C8.54169 15.9083 8.82502 15.625 9.16669 15.625H17.5C17.8417 15.625 18.125 15.9083 18.125 16.25C18.125 16.5917 17.8417 16.875 17.5 16.875Z" fill="#AE4E09"/>
<path d="M17.5 11.0417H9.16669C8.82502 11.0417 8.54169 10.7584 8.54169 10.4167C8.54169 10.0751 8.82502 9.79175 9.16669 9.79175H17.5C17.8417 9.79175 18.125 10.0751 18.125 10.4167C18.125 10.7584 17.8417 11.0417 17.5 11.0417Z" fill="#AE4E09"/>
<path d="M17.5 5.20825H9.16669C8.82502 5.20825 8.54169 4.92492 8.54169 4.58325C8.54169 4.24159 8.82502 3.95825 9.16669 3.95825H17.5C17.8417 3.95825 18.125 4.24159 18.125 4.58325C18.125 4.92492 17.8417 5.20825 17.5 5.20825Z" fill="#AE4E09"/>
<path d="M3.33333 6.04162C3.17499 6.04162 3.01666 5.98328 2.89166 5.85828L2.05833 5.02495C1.81666 4.78328 1.81666 4.38328 2.05833 4.14162C2.29999 3.89995 2.69999 3.89995 2.94166 4.14162L3.33333 4.53328L5.39166 2.47495C5.63332 2.23328 6.03333 2.23328 6.27499 2.47495C6.51666 2.71662 6.51666 3.11662 6.27499 3.35828L3.77499 5.85828C3.64999 5.98328 3.49166 6.04162 3.33333 6.04162Z" fill="#AE4E09"/>
<path d="M3.33333 11.8751C3.17499 11.8751 3.01666 11.8168 2.89166 11.6918L2.05833 10.8584C1.81666 10.6168 1.81666 10.2168 2.05833 9.97511C2.29999 9.73345 2.69999 9.73345 2.94166 9.97511L3.33333 10.3668L5.39166 8.30845C5.63332 8.06678 6.03333 8.06678 6.27499 8.30845C6.51666 8.55011 6.51666 8.95011 6.27499 9.19178L3.77499 11.6918C3.64999 11.8168 3.49166 11.8751 3.33333 11.8751Z" fill="#AE4E09"/>
<path d="M3.33333 17.7084C3.17499 17.7084 3.01666 17.65 2.89166 17.525L2.05833 16.6917C1.81666 16.45 1.81666 16.05 2.05833 15.8084C2.29999 15.5667 2.69999 15.5667 2.94166 15.8084L3.33333 16.2L5.39166 14.1417C5.63332 13.9 6.03333 13.9 6.27499 14.1417C6.51666 14.3834 6.51666 14.7834 6.27499 15.025L3.77499 17.525C3.64999 17.65 3.49166 17.7084 3.33333 17.7084Z" fill="#AE4E09"/>
</svg>
