<svg width="28" height="28" viewBox="0 0 28 28" fill="none" xmlns="http://www.w3.org/2000/svg">
<path d="M13.9999 12.446C13.5694 12.446 13.2124 12.089 13.2124 11.6585V8.16201C13.2124 7.73151 13.5694 7.37451 13.9999 7.37451C14.4304 7.37451 14.7874 7.73151 14.7874 8.16201V11.6585C14.7874 12.0995 14.4304 12.446 13.9999 12.446Z" fill="#7D462A"/>
<path d="M14.0209 22.7675C11.3119 22.7675 8.61341 22.337 6.04091 21.476C5.08541 21.161 4.36091 20.4785 4.04591 19.6175C3.73091 18.7565 3.83591 17.7695 4.35041 16.9085L5.68391 14.6825C5.97791 14.189 6.24041 13.265 6.24041 12.6875V10.4825C6.24041 6.18803 9.72641 2.70203 14.0209 2.70203C18.3154 2.70203 21.8014 6.18803 21.8014 10.4825V12.6875C21.8014 13.2545 22.0639 14.189 22.3579 14.6825L23.6914 16.9085C24.1849 17.7275 24.2689 18.704 23.9434 19.5965C23.6179 20.489 22.9039 21.1715 22.0009 21.476C19.4284 22.3475 16.7299 22.7675 14.0209 22.7675ZM14.0209 4.28753C10.5979 4.28753 7.81541 7.07003 7.81541 10.493V12.698C7.81541 13.5485 7.47941 14.777 7.03841 15.5015L5.70491 17.738C5.43191 18.1895 5.36891 18.6725 5.52641 19.0925C5.68391 19.5125 6.04091 19.8275 6.54491 19.9955C11.3749 21.602 16.6879 21.602 21.5179 19.9955C21.9694 19.8485 22.3159 19.5125 22.4734 19.0715C22.6414 18.6305 22.5889 18.1475 22.3474 17.738L21.0139 15.512C20.5729 14.7875 20.2369 13.559 20.2369 12.7085V10.5035C20.2264 7.07003 17.4439 4.28753 14.0209 4.28753Z" fill="#7D462A"/>
<path d="M13.9998 25.445C12.8763 25.445 11.7738 24.983 10.9758 24.185C10.1778 23.387 9.71582 22.2845 9.71582 21.161H11.2908C11.2908 21.875 11.5848 22.568 12.0888 23.072C12.5928 23.576 13.2858 23.87 13.9998 23.87C15.4908 23.87 16.7088 22.652 16.7088 21.161H18.2838C18.2838 23.5235 16.3623 25.445 13.9998 25.445Z" fill="#7D462A"/>
</svg>
