<svg width="28" height="28" viewBox="0 0 28 28" fill="none" xmlns="http://www.w3.org/2000/svg">
<rect width="28" height="28" rx="14" fill="#AE4E09"/>
<path d="M17.8706 20.3659H10.1294C9.52 20.3659 8.90235 19.9294 8.69647 19.3612L5.28706 9.8165C4.86706 8.61414 5.17177 8.06238 5.50118 7.81532C5.83059 7.56826 6.44824 7.42003 7.48588 8.1612L10.6976 10.4589C10.7965 10.5165 10.8871 10.5412 10.9529 10.5247C11.0271 10.5 11.0847 10.4341 11.1259 10.3189L12.5753 6.4565C13.0118 5.30356 13.6541 5.13062 14 5.13062C14.3459 5.13062 14.9882 5.30356 15.4247 6.4565L16.8741 10.3189C16.9153 10.4259 16.9729 10.5 17.0471 10.5247C17.1212 10.5494 17.2118 10.5247 17.3024 10.4506L20.3165 8.3012C21.42 7.51062 22.0624 7.66709 22.4165 7.92238C22.7624 8.18591 23.0835 8.77062 22.6306 10.0471L19.3035 19.3612C19.0976 19.9294 18.48 20.3659 17.8706 20.3659ZM6.32471 8.90238C6.34118 9.01767 6.37412 9.18238 6.45647 9.3965L9.86588 18.9412C9.89882 19.0236 10.0471 19.1306 10.1294 19.1306H17.8706C17.9612 19.1306 18.1094 19.0236 18.1341 18.9412L21.4612 9.63532C21.5765 9.32238 21.6094 9.10826 21.6176 8.98473C21.4941 9.02591 21.3047 9.1165 21.0329 9.31414L18.0188 11.4636C17.6071 11.7518 17.1212 11.8424 16.6847 11.7106C16.2482 11.5789 15.8941 11.233 15.7129 10.7636L14.2635 6.9012C14.1565 6.61297 14.0576 6.47297 14 6.40709C13.9424 6.47297 13.8435 6.61297 13.7365 6.89297L12.2871 10.7553C12.1141 11.2247 11.76 11.5706 11.3153 11.7024C10.8788 11.8341 10.3847 11.7436 9.98118 11.4553L6.76941 9.15767C6.58 9.02591 6.43177 8.94356 6.32471 8.90238Z" fill="#FEF5EE"/>
<path d="M18.5294 22.853H9.47059C9.13294 22.853 8.85294 22.573 8.85294 22.2353C8.85294 21.8977 9.13294 21.6177 9.47059 21.6177H18.5294C18.8671 21.6177 19.1471 21.8977 19.1471 22.2353C19.1471 22.573 18.8671 22.853 18.5294 22.853Z" fill="#FEF5EE"/>
<path d="M16.0588 16.2647H11.9412C11.6035 16.2647 11.3235 15.9847 11.3235 15.6471C11.3235 15.3094 11.6035 15.0294 11.9412 15.0294H16.0588C16.3965 15.0294 16.6765 15.3094 16.6765 15.6471C16.6765 15.9847 16.3965 16.2647 16.0588 16.2647Z" fill="#FEF5EE"/>
</svg>
