<svg width="15" height="15" viewBox="0 0 15 15" fill="none" xmlns="http://www.w3.org/2000/svg">
<path d="M8.70134 4.83607C8.59478 4.83607 8.48823 4.79681 8.4041 4.71269L7.26564 3.57423L6.12718 4.71269C5.96454 4.87532 5.69535 4.87532 5.53271 4.71269C5.37008 4.55005 5.37008 4.28086 5.53271 4.11822L6.96841 2.68252C7.13105 2.51989 7.40024 2.51989 7.56288 2.68252L8.99857 4.11822C9.16121 4.28086 9.16121 4.55005 8.99857 4.71269C8.91445 4.79681 8.80789 4.83607 8.70134 4.83607Z" fill="#FFFBF8"/>
<path d="M7.26565 9.14314C7.03571 9.14314 6.84503 8.95246 6.84503 8.72253V3.019C6.84503 2.78907 7.03571 2.59839 7.26565 2.59839C7.49558 2.59839 7.68626 2.78907 7.68626 3.019V8.72253C7.68626 8.95807 7.49558 9.14314 7.26565 9.14314Z" fill="#FFFBF8"/>
<path d="M7.33294 12.4071C4.44473 12.4071 2.42578 10.3882 2.42578 7.49996C2.42578 7.27002 2.61646 7.07935 2.8464 7.07935C3.07633 7.07935 3.26701 7.27002 3.26701 7.49996C3.26701 9.89465 4.93825 11.5659 7.33294 11.5659C9.72764 11.5659 11.3989 9.89465 11.3989 7.49996C11.3989 7.27002 11.5896 7.07935 11.8195 7.07935C12.0494 7.07935 12.2401 7.27002 12.2401 7.49996C12.2401 10.3882 10.2212 12.4071 7.33294 12.4071Z" fill="#FFFBF8"/>
</svg>
