<svg width="20" height="20" viewBox="0 0 20 20" fill="none" xmlns="http://www.w3.org/2000/svg">
<path d="M10 4.375H2.5C2.15833 4.375 1.875 4.09167 1.875 3.75C1.875 3.40833 2.15833 3.125 2.5 3.125H10C10.3417 3.125 10.625 3.40833 10.625 3.75C10.625 4.09167 10.3417 4.375 10 4.375Z" fill="#AE4E09"/>
<path d="M10 8.54175H2.5C2.15833 8.54175 1.875 8.25842 1.875 7.91675C1.875 7.57508 2.15833 7.29175 2.5 7.29175H10C10.3417 7.29175 10.625 7.57508 10.625 7.91675C10.625 8.25842 10.3417 8.54175 10 8.54175Z" fill="#AE4E09"/>
<path d="M17.5 12.7083H2.5C2.15833 12.7083 1.875 12.4249 1.875 12.0833C1.875 11.7416 2.15833 11.4583 2.5 11.4583H17.5C17.8417 11.4583 18.125 11.7416 18.125 12.0833C18.125 12.4249 17.8417 12.7083 17.5 12.7083Z" fill="#AE4E09"/>
<path d="M17.5 16.875H2.5C2.15833 16.875 1.875 16.5917 1.875 16.25C1.875 15.9083 2.15833 15.625 2.5 15.625H17.5C17.8417 15.625 18.125 15.9083 18.125 16.25C18.125 16.5917 17.8417 16.875 17.5 16.875Z" fill="#AE4E09"/>
</svg>
