<svg width="20" height="20" viewBox="0 0 20 20" fill="none" xmlns="http://www.w3.org/2000/svg">
<path d="M15.8335 18.9583C15.4918 18.9583 15.2085 18.675 15.2085 18.3333V9.16663C15.2085 8.82496 15.4918 8.54163 15.8335 8.54163C16.1752 8.54163 16.4585 8.82496 16.4585 9.16663V18.3333C16.4585 18.675 16.1752 18.9583 15.8335 18.9583Z" fill="#4C4C4C"/>
<path d="M15.8335 6.45829C15.4918 6.45829 15.2085 6.17496 15.2085 5.83329V1.66663C15.2085 1.32496 15.4918 1.04163 15.8335 1.04163C16.1752 1.04163 16.4585 1.32496 16.4585 1.66663V5.83329C16.4585 6.17496 16.1752 6.45829 15.8335 6.45829Z" fill="#4C4C4C"/>
<path d="M10 18.9583C9.65833 18.9583 9.375 18.675 9.375 18.3333V14.1666C9.375 13.825 9.65833 13.5416 10 13.5416C10.3417 13.5416 10.625 13.825 10.625 14.1666V18.3333C10.625 18.675 10.3417 18.9583 10 18.9583Z" fill="#4C4C4C"/>
<path d="M10 11.4583C9.65833 11.4583 9.375 11.175 9.375 10.8333V1.66663C9.375 1.32496 9.65833 1.04163 10 1.04163C10.3417 1.04163 10.625 1.32496 10.625 1.66663V10.8333C10.625 11.175 10.3417 11.4583 10 11.4583Z" fill="#4C4C4C"/>
<path d="M4.1665 18.9583C3.82484 18.9583 3.5415 18.675 3.5415 18.3333V9.16663C3.5415 8.82496 3.82484 8.54163 4.1665 8.54163C4.50817 8.54163 4.7915 8.82496 4.7915 9.16663V18.3333C4.7915 18.675 4.50817 18.9583 4.1665 18.9583Z" fill="#4C4C4C"/>
<path d="M4.1665 6.45829C3.82484 6.45829 3.5415 6.17496 3.5415 5.83329V1.66663C3.5415 1.32496 3.82484 1.04163 4.1665 1.04163C4.50817 1.04163 4.7915 1.32496 4.7915 1.66663V5.83329C4.7915 6.17496 4.50817 6.45829 4.1665 6.45829Z" fill="#4C4C4C"/>
<path d="M5.83333 9.79163H2.5C2.15833 9.79163 1.875 9.50829 1.875 9.16663C1.875 8.82496 2.15833 8.54163 2.5 8.54163H5.83333C6.175 8.54163 6.45833 8.82496 6.45833 9.16663C6.45833 9.50829 6.175 9.79163 5.83333 9.79163Z" fill="#4C4C4C"/>
<path d="M17.4998 9.79163H14.1665C13.8248 9.79163 13.5415 9.50829 13.5415 9.16663C13.5415 8.82496 13.8248 8.54163 14.1665 8.54163H17.4998C17.8415 8.54163 18.1248 8.82496 18.1248 9.16663C18.1248 9.50829 17.8415 9.79163 17.4998 9.79163Z" fill="#4C4C4C"/>
<path d="M11.6668 11.4584H8.3335C7.99183 11.4584 7.7085 11.175 7.7085 10.8334C7.7085 10.4917 7.99183 10.2084 8.3335 10.2084H11.6668C12.0085 10.2084 12.2918 10.4917 12.2918 10.8334C12.2918 11.175 12.0085 11.4584 11.6668 11.4584Z" fill="#4C4C4C"/>
</svg>
