<svg width="20" height="20" viewBox="0 0 20 20" fill="none" xmlns="http://www.w3.org/2000/svg">
<path d="M11.6667 17.2916H8.33335C4.30835 17.2916 1.04169 14.0166 1.04169 9.99992C1.04169 5.98325 4.30835 2.70825 8.33335 2.70825H11.6667C15.6917 2.70825 18.9584 5.98325 18.9584 9.99992C18.9584 14.0166 15.6917 17.2916 11.6667 17.2916ZM8.33335 3.95825C5.00002 3.95825 2.29169 6.66659 2.29169 9.99992C2.29169 13.3333 5.00002 16.0416 8.33335 16.0416H11.6667C15 16.0416 17.7084 13.3333 17.7084 9.99992C17.7084 6.66659 15 3.95825 11.6667 3.95825H8.33335Z" fill="#4C4C4C"/>
<path d="M11.6666 13.9584C9.48331 13.9584 7.70831 12.1834 7.70831 10.0001C7.70831 7.81675 9.48331 6.04175 11.6666 6.04175C13.85 6.04175 15.625 7.81675 15.625 10.0001C15.625 12.1834 13.85 13.9584 11.6666 13.9584ZM11.6666 7.29175C10.175 7.29175 8.95831 8.50841 8.95831 10.0001C8.95831 11.4917 10.175 12.7084 11.6666 12.7084C13.1583 12.7084 14.375 11.4917 14.375 10.0001C14.375 8.50841 13.1583 7.29175 11.6666 7.29175Z" fill="#4C4C4C"/>
</svg>
