<svg width="20" height="20" viewBox="0 0 20 20" fill="none" xmlns="http://www.w3.org/2000/svg">
<path d="M11.6667 17.2916H8.33342C4.30841 17.2916 1.04175 14.0166 1.04175 9.99992C1.04175 5.98325 4.30841 2.70825 8.33342 2.70825H11.6667C15.6917 2.70825 18.9584 5.98325 18.9584 9.99992C18.9584 14.0166 15.6917 17.2916 11.6667 17.2916ZM8.33342 3.95825C5.00008 3.95825 2.29175 6.66659 2.29175 9.99992C2.29175 13.3333 5.00008 16.0416 8.33342 16.0416H11.6667C15.0001 16.0416 17.7084 13.3333 17.7084 9.99992C17.7084 6.66659 15.0001 3.95825 11.6667 3.95825H8.33342Z" fill="#AE4E09"/>
<path d="M8.33333 13.9584C6.15 13.9584 4.375 12.1834 4.375 10.0001C4.375 7.81675 6.15 6.04175 8.33333 6.04175C10.5167 6.04175 12.2917 7.81675 12.2917 10.0001C12.2917 12.1834 10.5167 13.9584 8.33333 13.9584ZM8.33333 7.29175C6.84167 7.29175 5.625 8.50841 5.625 10.0001C5.625 11.4917 6.84167 12.7084 8.33333 12.7084C9.825 12.7084 11.0417 11.4917 11.0417 10.0001C11.0417 8.50841 9.825 7.29175 8.33333 7.29175Z" fill="#AE4E09"/>
</svg>
