<svg width="20" height="20" viewBox="0 0 20 20" fill="none" xmlns="http://www.w3.org/2000/svg">
<path d="M5.83335 8.95842H4.16669C2.15002 8.95842 1.04169 7.85008 1.04169 5.83342V4.16675C1.04169 2.15008 2.15002 1.04175 4.16669 1.04175H5.83335C7.85002 1.04175 8.95835 2.15008 8.95835 4.16675V5.83342C8.95835 7.85008 7.85002 8.95842 5.83335 8.95842ZM4.16669 2.29175C2.85002 2.29175 2.29169 2.85008 2.29169 4.16675V5.83342C2.29169 7.15008 2.85002 7.70842 4.16669 7.70842H5.83335C7.15002 7.70842 7.70835 7.15008 7.70835 5.83342V4.16675C7.70835 2.85008 7.15002 2.29175 5.83335 2.29175H4.16669Z" fill="#4C4C4C"/>
<path d="M15.8334 8.95842H14.1667C12.15 8.95842 11.0417 7.85008 11.0417 5.83342V4.16675C11.0417 2.15008 12.15 1.04175 14.1667 1.04175H15.8334C17.85 1.04175 18.9584 2.15008 18.9584 4.16675V5.83342C18.9584 7.85008 17.85 8.95842 15.8334 8.95842ZM14.1667 2.29175C12.85 2.29175 12.2917 2.85008 12.2917 4.16675V5.83342C12.2917 7.15008 12.85 7.70842 14.1667 7.70842H15.8334C17.15 7.70842 17.7084 7.15008 17.7084 5.83342V4.16675C17.7084 2.85008 17.15 2.29175 15.8334 2.29175H14.1667Z" fill="#4C4C4C"/>
<path d="M15.8334 18.9584H14.1667C12.15 18.9584 11.0417 17.8501 11.0417 15.8334V14.1667C11.0417 12.1501 12.15 11.0417 14.1667 11.0417H15.8334C17.85 11.0417 18.9584 12.1501 18.9584 14.1667V15.8334C18.9584 17.8501 17.85 18.9584 15.8334 18.9584ZM14.1667 12.2917C12.85 12.2917 12.2917 12.8501 12.2917 14.1667V15.8334C12.2917 17.1501 12.85 17.7084 14.1667 17.7084H15.8334C17.15 17.7084 17.7084 17.1501 17.7084 15.8334V14.1667C17.7084 12.8501 17.15 12.2917 15.8334 12.2917H14.1667Z" fill="#4C4C4C"/>
<path d="M5.83335 18.9584H4.16669C2.15002 18.9584 1.04169 17.8501 1.04169 15.8334V14.1667C1.04169 12.1501 2.15002 11.0417 4.16669 11.0417H5.83335C7.85002 11.0417 8.95835 12.1501 8.95835 14.1667V15.8334C8.95835 17.8501 7.85002 18.9584 5.83335 18.9584ZM4.16669 12.2917C2.85002 12.2917 2.29169 12.8501 2.29169 14.1667V15.8334C2.29169 17.1501 2.85002 17.7084 4.16669 17.7084H5.83335C7.15002 17.7084 7.70835 17.1501 7.70835 15.8334V14.1667C7.70835 12.8501 7.15002 12.2917 5.83335 12.2917H4.16669Z" fill="#4C4C4C"/>
</svg>
