<svg width="20" height="20" viewBox="0 0 20 20" fill="none" xmlns="http://www.w3.org/2000/svg">
<path d="M5.83335 8.95829H4.16669C2.15002 8.95829 1.04169 7.84996 1.04169 5.83329V4.16663C1.04169 2.14996 2.15002 1.04163 4.16669 1.04163H5.83335C7.85002 1.04163 8.95835 2.14996 8.95835 4.16663V5.83329C8.95835 7.84996 7.85002 8.95829 5.83335 8.95829ZM4.16669 2.29163C2.85002 2.29163 2.29169 2.84996 2.29169 4.16663V5.83329C2.29169 7.14996 2.85002 7.70829 4.16669 7.70829H5.83335C7.15002 7.70829 7.70835 7.14996 7.70835 5.83329V4.16663C7.70835 2.84996 7.15002 2.29163 5.83335 2.29163H4.16669Z" fill="#7D462A"/>
<path d="M15.8334 8.95829H14.1667C12.15 8.95829 11.0417 7.84996 11.0417 5.83329V4.16663C11.0417 2.14996 12.15 1.04163 14.1667 1.04163H15.8334C17.85 1.04163 18.9584 2.14996 18.9584 4.16663V5.83329C18.9584 7.84996 17.85 8.95829 15.8334 8.95829ZM14.1667 2.29163C12.85 2.29163 12.2917 2.84996 12.2917 4.16663V5.83329C12.2917 7.14996 12.85 7.70829 14.1667 7.70829H15.8334C17.15 7.70829 17.7084 7.14996 17.7084 5.83329V4.16663C17.7084 2.84996 17.15 2.29163 15.8334 2.29163H14.1667Z" fill="#7D462A"/>
<path d="M15.8334 18.9583H14.1667C12.15 18.9583 11.0417 17.85 11.0417 15.8333V14.1666C11.0417 12.15 12.15 11.0416 14.1667 11.0416H15.8334C17.85 11.0416 18.9584 12.15 18.9584 14.1666V15.8333C18.9584 17.85 17.85 18.9583 15.8334 18.9583ZM14.1667 12.2916C12.85 12.2916 12.2917 12.85 12.2917 14.1666V15.8333C12.2917 17.15 12.85 17.7083 14.1667 17.7083H15.8334C17.15 17.7083 17.7084 17.15 17.7084 15.8333V14.1666C17.7084 12.85 17.15 12.2916 15.8334 12.2916H14.1667Z" fill="#7D462A"/>
<path d="M5.83335 18.9583H4.16669C2.15002 18.9583 1.04169 17.85 1.04169 15.8333V14.1666C1.04169 12.15 2.15002 11.0416 4.16669 11.0416H5.83335C7.85002 11.0416 8.95835 12.15 8.95835 14.1666V15.8333C8.95835 17.85 7.85002 18.9583 5.83335 18.9583ZM4.16669 12.2916C2.85002 12.2916 2.29169 12.85 2.29169 14.1666V15.8333C2.29169 17.15 2.85002 17.7083 4.16669 17.7083H5.83335C7.15002 17.7083 7.70835 17.15 7.70835 15.8333V14.1666C7.70835 12.85 7.15002 12.2916 5.83335 12.2916H4.16669Z" fill="#7D462A"/>
</svg>
