<svg width="20" height="20" viewBox="0 0 20 20" fill="none" xmlns="http://www.w3.org/2000/svg">
<path d="M10 18.9584C5.05835 18.9584 1.04169 14.9417 1.04169 10.0001C1.04169 5.05841 5.05835 1.04175 10 1.04175C14.9417 1.04175 18.9584 5.05841 18.9584 10.0001C18.9584 14.9417 14.9417 18.9584 10 18.9584ZM10 2.29175C5.75002 2.29175 2.29169 5.75008 2.29169 10.0001C2.29169 14.2501 5.75002 17.7084 10 17.7084C14.25 17.7084 17.7084 14.2501 17.7084 10.0001C17.7084 5.75008 14.25 2.29175 10 2.29175Z" fill="#AE4E09"/>
<path d="M4.08331 16.4583C3.92497 16.4583 3.76664 16.4 3.64164 16.275C3.39997 16.0333 3.39997 15.6333 3.64164 15.3916L15.3083 3.72495C15.55 3.48328 15.95 3.48328 16.1916 3.72495C16.4333 3.96662 16.4333 4.36662 16.1916 4.60828L4.52497 16.275C4.39997 16.4 4.24164 16.4583 4.08331 16.4583Z" fill="#AE4E09"/>
</svg>
