<svg width="127" height="45" viewBox="0 0 127 45" fill="none" xmlns="http://www.w3.org/2000/svg">
<rect x="44.0379" y="44.0693" width="44" height="44" rx="22" transform="rotate(180 44.0379 44.0693)" fill="#F3ECE6"/>
<path d="M28.5945 19.2926H22.4695C21.9912 19.2926 21.5945 18.8959 21.5945 18.4176C21.5945 17.9393 21.9912 17.5426 22.4695 17.5426H28.5945C29.0729 17.5426 29.4695 17.9393 29.4695 18.4176C29.4695 18.8959 29.0845 19.2926 28.5945 19.2926Z" fill="#310A31"/>
<path d="M16.3446 20.1793C16.123 20.1793 15.9013 20.0976 15.7263 19.9226L14.8513 19.0476C14.513 18.7093 14.513 18.1493 14.8513 17.8109C15.1896 17.4726 15.7496 17.4726 16.088 17.8109L16.3446 18.0676L18.3513 16.0609C18.6896 15.7226 19.2496 15.7226 19.5879 16.0609C19.9263 16.3993 19.9263 16.9593 19.5879 17.2976L16.963 19.9226C16.7996 20.0859 16.578 20.1793 16.3446 20.1793Z" fill="#FEF5EE"/>
<path d="M28.5945 27.4593H22.4695C21.9912 27.4593 21.5945 27.0626 21.5945 26.5843C21.5945 26.1059 21.9912 25.7093 22.4695 25.7093H28.5945C29.0729 25.7093 29.4695 26.1059 29.4695 26.5843C29.4695 27.0626 29.0845 27.4593 28.5945 27.4593Z" fill="#310A31"/>
<path d="M16.3446 28.3459C16.123 28.3459 15.9013 28.2643 15.7263 28.0893L14.8513 27.2143C14.513 26.8759 14.513 26.3159 14.8513 25.9776C15.1896 25.6393 15.7496 25.6393 16.088 25.9776L16.3446 26.2343L18.3513 24.2276C18.6896 23.8893 19.2496 23.8893 19.5879 24.2276C19.9263 24.5659 19.9263 25.1259 19.5879 25.4643L16.963 28.0893C16.7996 28.2526 16.578 28.3459 16.3446 28.3459Z" fill="#310A31"/>
<path d="M25.5379 34.6109H18.5379C12.2029 34.6109 9.49628 31.9043 9.49628 25.5693V18.5693C9.49628 12.2343 12.2029 9.52759 18.5379 9.52759H25.5379C31.8729 9.52759 34.5796 12.2343 34.5796 18.5693V25.5693C34.5796 31.9043 31.8729 34.6109 25.5379 34.6109ZM18.5379 11.2776C13.1596 11.2776 11.2463 13.1909 11.2463 18.5693V25.5693C11.2463 30.9476 13.1596 32.8609 18.5379 32.8609H25.5379C30.9163 32.8609 32.8296 30.9476 32.8296 25.5693V18.5693C32.8296 13.1909 30.9163 11.2776 25.5379 11.2776H18.5379Z" fill="#310A31"/>
<path d="M61.8201 35.1411C62.9087 35.0297 63.4529 34.739 63.4529 34.269C63.4529 33.9968 63.3169 33.6938 63.0447 33.3598L57.9793 26.8657H57.0701C57.0701 29.822 57.1072 31.9868 57.1815 33.3598C57.1815 33.6814 57.2619 33.9597 57.4227 34.1948C57.5958 34.4174 57.8432 34.5906 58.1649 34.7143C58.4988 34.838 58.771 34.9308 58.9813 34.9926C59.2039 35.0421 59.4946 35.0916 59.8533 35.1411C59.9276 35.2895 59.9647 35.4441 59.9647 35.6049C59.9647 35.7657 59.9276 35.9018 59.8533 36.0131C58.2205 35.9389 56.6743 35.9018 55.2147 35.9018C53.7055 35.9018 52.1346 35.9389 50.5018 36.0131C50.4523 35.8152 50.4276 35.6791 50.4276 35.6049C50.4276 35.5431 50.4523 35.3884 50.5018 35.1411C50.91 35.0916 51.2378 35.0421 51.4852 34.9926C51.7449 34.9308 52.0665 34.838 52.45 34.7143C52.8458 34.5906 53.1427 34.4174 53.3406 34.1948C53.5386 33.9597 53.6437 33.6814 53.6561 33.3598C53.7055 32.1352 53.7241 28.2758 53.7117 21.7817C53.6994 15.2752 53.6932 11.6323 53.6932 10.853C52.9881 10.4448 51.8006 10.1912 50.1307 10.0922C50.0688 9.93142 50.0379 9.78298 50.0379 9.64691C50.0379 9.52321 50.0688 9.38096 50.1307 9.22015C52.4809 8.9975 54.5652 8.49034 56.3836 7.69867C56.7176 7.83474 56.9341 8.00173 57.033 8.19965L57.0701 25.6782H58.035L61.783 22.1157C62.018 21.8435 62.1356 21.5652 62.1356 21.2807C62.1356 20.7612 61.548 20.4396 60.3729 20.3159C60.3234 20.1179 60.2986 19.9819 60.2986 19.9077C60.2986 19.7963 60.3234 19.6417 60.3729 19.4438C61.9809 19.518 63.2612 19.5551 64.2137 19.5551C65.2527 19.5551 66.5701 19.518 68.1658 19.4438C68.2153 19.5922 68.2401 19.7221 68.2401 19.8334C68.2401 19.9077 68.2153 20.0685 68.1658 20.3159C67.0649 20.4396 66.1557 20.6251 65.4383 20.8725C64.7208 21.1075 64.0714 21.5219 63.4901 22.1157L60.5399 25.103L67.0711 33.3598C67.8133 34.3246 68.9266 34.9184 70.4109 35.1411C70.4604 35.3884 70.4852 35.5554 70.4852 35.642C70.4852 35.741 70.4604 35.8647 70.4109 36.0131C68.8152 35.9389 67.3742 35.9018 66.0877 35.9018C64.8384 35.9018 63.4158 35.9389 61.8201 36.0131C61.7706 35.8152 61.7459 35.6668 61.7459 35.5678C61.7459 35.4812 61.7706 35.339 61.8201 35.1411Z" fill="#F3ECE6"/>
<path d="M68.9637 19.4438C70.5223 19.518 72.0685 19.5551 73.6024 19.5551C74.7156 19.5551 76.033 19.518 77.5545 19.4438C77.604 19.6417 77.6287 19.7963 77.6287 19.9077C77.6287 19.9819 77.604 20.1179 77.5545 20.3159C77.2576 20.3406 77.0102 20.3715 76.8123 20.4086C76.6144 20.4334 76.3917 20.4828 76.1443 20.5571C75.897 20.6313 75.7052 20.7426 75.5692 20.8911C75.4455 21.0395 75.3836 21.2189 75.3836 21.4291C75.3836 21.5405 75.4331 21.7693 75.532 22.1157L79.3358 31.5786H79.41L82.8055 24.1196L82.0447 22.1157C81.921 21.794 81.7602 21.5219 81.5623 21.2993C81.3644 21.0642 81.1232 20.8849 80.8387 20.7612C80.5542 20.6375 80.3068 20.5447 80.0965 20.4828C79.8986 20.421 79.645 20.3653 79.3358 20.3159C79.2863 20.2169 79.2615 20.0808 79.2615 19.9077C79.2615 19.7221 79.2863 19.5675 79.3358 19.4438C80.8943 19.518 82.3292 19.5551 83.6404 19.5551C84.9269 19.5551 86.3309 19.518 87.8524 19.4438C87.9018 19.6417 87.9266 19.7963 87.9266 19.9077C87.9266 19.9819 87.9018 20.1179 87.8524 20.3159C87.5184 20.3406 87.2524 20.3715 87.0545 20.4086C86.8566 20.4334 86.603 20.4828 86.2938 20.5571C85.9969 20.6313 85.768 20.7426 85.6072 20.8911C85.4588 21.0395 85.3846 21.2189 85.3846 21.4291C85.3846 21.5405 85.4341 21.7693 85.533 22.1157L88.9471 31.5786H89.0213L93.0291 22.1157C93.1528 21.8064 93.2147 21.5405 93.2147 21.3178C93.2147 20.7612 92.5405 20.4272 91.1922 20.3159C91.1427 20.1179 91.118 19.9819 91.118 19.9077C91.118 19.7963 91.1427 19.6417 91.1922 19.4438C92.5652 19.518 93.4126 19.5551 93.7342 19.5551C94.7238 19.5551 95.9793 19.518 97.5008 19.4438C97.5503 19.5922 97.575 19.7221 97.575 19.8334C97.575 19.9077 97.5503 20.0685 97.5008 20.3159C96.0659 20.3777 95.1196 20.9776 94.6619 22.1157L88.4276 36.4399H87.5555L83.5291 26.0307L78.8162 36.4399H77.9256L72.0438 22.1157C71.9077 21.8064 71.716 21.5405 71.4686 21.3178C71.2335 21.0828 70.949 20.9034 70.6151 20.7797C70.2811 20.6437 70.0027 20.5509 69.7801 20.5014C69.5698 20.4396 69.2977 20.3777 68.9637 20.3159C68.9142 20.2169 68.8895 20.0808 68.8895 19.9077C68.8895 19.7221 68.9142 19.5675 68.9637 19.4438Z" fill="#F3ECE6"/>
<path d="M98.6326 20.6313C101.032 20.3839 103.123 19.8767 104.904 19.1098C105.213 19.2335 105.43 19.3943 105.554 19.5922C105.554 26.0121 105.603 30.6013 105.702 33.3598C105.714 33.6814 105.807 33.9597 105.98 34.1948C106.166 34.4174 106.426 34.5906 106.76 34.7143C107.094 34.838 107.372 34.9308 107.595 34.9926C107.817 35.0421 108.108 35.0916 108.467 35.1411C108.541 35.2895 108.578 35.4441 108.578 35.6049C108.578 35.7657 108.541 35.9018 108.467 36.0131C106.834 35.9389 105.25 35.9018 103.717 35.9018C102.208 35.9018 100.637 35.9389 99.0037 36.0131C98.9542 35.8152 98.9295 35.6791 98.9295 35.6049C98.9295 35.5431 98.9542 35.3884 99.0037 35.1411C99.4119 35.0916 99.7459 35.0421 100.006 34.9926C100.265 34.9308 100.587 34.838 100.971 34.7143C101.354 34.5906 101.645 34.4174 101.843 34.1948C102.041 33.9597 102.146 33.6814 102.158 33.3598C102.208 32.1352 102.232 30.6508 102.232 28.9067C102.232 28.3253 102.226 27.3357 102.214 25.9379C102.201 24.5401 102.195 23.3155 102.195 22.2641C101.49 21.8312 100.303 21.5776 98.6326 21.5034C98.5831 21.3054 98.5584 21.1508 98.5584 21.0395C98.5584 20.9653 98.5831 20.8292 98.6326 20.6313ZM101.546 12.8754C101.546 12.2446 101.768 11.7065 102.214 11.2612C102.671 10.8159 103.209 10.5932 103.828 10.5932C104.459 10.5932 104.997 10.8159 105.442 11.2612C105.888 11.7065 106.11 12.2446 106.11 12.8754C106.11 13.4939 105.888 14.032 105.442 14.4897C104.997 14.935 104.459 15.1577 103.828 15.1577C103.209 15.1577 102.671 14.935 102.214 14.4897C101.768 14.032 101.546 13.4939 101.546 12.8754Z" fill="#F3ECE6"/>
<path d="M112.846 19.4438C114.627 19.5427 116.526 19.5922 118.542 19.5922C120.744 19.5922 122.76 19.5427 124.591 19.4438C124.813 19.6788 124.925 19.9077 124.925 20.1303L115.35 34.5659H119.451C120.107 34.5659 120.694 34.4916 121.214 34.3432C121.746 34.1824 122.185 33.9968 122.531 33.7866C122.89 33.5763 123.255 33.2485 123.626 32.8032C123.997 32.3455 124.288 31.9435 124.498 31.5971C124.721 31.2508 125.03 30.7374 125.426 30.0571C125.648 30.0571 125.865 30.1065 126.075 30.2055L124.888 36.0131C122.723 35.9389 120.558 35.9018 118.393 35.9018C116.117 35.9018 113.903 35.9389 111.751 36.0131C111.516 35.8771 111.349 35.6235 111.25 35.2524L120.972 20.5942H118.505C115.709 20.5942 113.68 21.8745 112.419 24.435C112.332 24.435 112.178 24.3917 111.955 24.3051C111.745 24.2185 111.609 24.1443 111.547 24.0825L112.846 19.4438Z" fill="#F3ECE6"/>
<circle cx="103.906" cy="12.9018" r="3" fill="#FEF5EE"/>
</svg>
