<svg width="44" height="44" viewBox="0 0 44 44" fill="none" xmlns="http://www.w3.org/2000/svg">
<rect x="44" y="44" width="44" height="44" rx="22" transform="rotate(180 44 44)" fill="#310A31"/>
<path d="M28.5566 19.2233H22.4316C21.9533 19.2233 21.5566 18.8267 21.5566 18.3483C21.5566 17.87 21.9533 17.4733 22.4316 17.4733H28.5566C29.035 17.4733 29.4316 17.87 29.4316 18.3483C29.4316 18.8267 29.0466 19.2233 28.5566 19.2233Z" fill="#FEF5EE"/>
<path d="M16.3067 20.11C16.085 20.11 15.8633 20.0283 15.6883 19.8533L14.8133 18.9783C14.475 18.64 14.475 18.08 14.8133 17.7417C15.1517 17.4033 15.7117 17.4033 16.05 17.7417L16.3067 17.9983L18.3133 15.9917C18.6517 15.6533 19.2117 15.6533 19.55 15.9917C19.8883 16.33 19.8883 16.89 19.55 17.2283L16.925 19.8533C16.7617 20.0167 16.54 20.11 16.3067 20.11Z" fill="#F3ECE6"/>
<path d="M28.5566 27.39H22.4316C21.9533 27.39 21.5566 26.9933 21.5566 26.515C21.5566 26.0367 21.9533 25.64 22.4316 25.64H28.5566C29.035 25.64 29.4316 26.0367 29.4316 26.515C29.4316 26.9933 29.0466 27.39 28.5566 27.39Z" fill="#FEF5EE"/>
<path d="M16.3067 28.2767C16.085 28.2767 15.8633 28.195 15.6883 28.02L14.8133 27.145C14.475 26.8067 14.475 26.2467 14.8133 25.9083C15.1517 25.57 15.7117 25.57 16.05 25.9083L16.3067 26.165L18.3133 24.1583C18.6517 23.82 19.2117 23.82 19.55 24.1583C19.8883 24.4967 19.8883 25.0567 19.55 25.395L16.925 28.02C16.7617 28.1833 16.54 28.2767 16.3067 28.2767Z" fill="#FEF5EE"/>
<path d="M25.5 34.5417H18.5C12.165 34.5417 9.45837 31.835 9.45837 25.5V18.5C9.45837 12.165 12.165 9.45834 18.5 9.45834H25.5C31.835 9.45834 34.5417 12.165 34.5417 18.5V25.5C34.5417 31.835 31.835 34.5417 25.5 34.5417ZM18.5 11.2083C13.1217 11.2083 11.2084 13.1217 11.2084 18.5V25.5C11.2084 30.8783 13.1217 32.7917 18.5 32.7917H25.5C30.8784 32.7917 32.7917 30.8783 32.7917 25.5V18.5C32.7917 13.1217 30.8784 11.2083 25.5 11.2083H18.5Z" fill="#FEF5EE"/>
</svg>
